<svg xmlns="http://www.w3.org/2000/svg" width="235.97" height="49.3" viewBox="0 0 235.97 49.3">
  <g id="Artwork_7" data-name="Artwork 7" transform="translate(4514.3 943.15)">
    <g id="Artwork_7-2" data-name="Artwork 7" transform="translate(-4514.3 -943.15)">
      <path id="Path_9" data-name="Path 9" d="M162.4,162.3v32.45c0,.115.005.23.016.342a3.881,3.881,0,0,0,1.709,2.864,4.284,4.284,0,0,0,2.431.627c.531,0,1.069-.055,1.6-.107,1.633-.17,3.238-.5,4.874-.643.567-.047,1.137-.078,1.707-.078a10.936,10.936,0,0,1,3.027.379,6.163,6.163,0,0,1,3.283,2.2l.016.024.018-.024a6.163,6.163,0,0,1,3.283-2.2,10.936,10.936,0,0,1,3.027-.379c.57,0,1.14.031,1.707.078,1.636.139,3.243.473,4.874.643a15.553,15.553,0,0,0,1.6.107,4.289,4.289,0,0,0,2.431-.627,3.881,3.881,0,0,0,1.709-2.864c.01-.115.016-.23.016-.342V162.3Zm18.193,36.334A7.4,7.4,0,0,0,178,197.3a11.808,11.808,0,0,0-3.262-.41c-.544,0-1.126.026-1.78.081-.915.078-1.819.217-2.7.348-.719.107-1.464.22-2.19.3-.468.047-1,.1-1.508.1a3.419,3.419,0,0,1-1.952-.484,3.008,3.008,0,0,1-1.328-2.224c-.008-.081-.01-.167-.01-.261v-13.3h17.325Zm0-18.112H163.262V163.165h17.331Zm18.264,14.228c0,.094-.005.183-.01.267a3.011,3.011,0,0,1-1.325,2.219,3.413,3.413,0,0,1-1.955.484c-.507,0-1.04-.057-1.508-.1-.729-.076-1.471-.188-2.19-.3-.878-.131-1.785-.269-2.7-.348-.653-.055-1.234-.081-1.78-.081a11.808,11.808,0,0,0-3.262.41,7.378,7.378,0,0,0-2.6,1.333V181.455h17.331Zm0-14.228H181.526V163.165h17.331Z" transform="translate(-158.156 -158.058)" fill="#fff"/>
      <path id="Path_10" data-name="Path 10" d="M331.3,320.843a5.9,5.9,0,0,1,10.227-3.646l-1.592,1.469a3.451,3.451,0,0,0-2.695-1.257,3.429,3.429,0,0,0,0,6.858,3.415,3.415,0,0,0,2.695-1.27l1.592,1.469a5.891,5.891,0,0,1-10.227-3.63" transform="translate(-322.641 -307.059)" fill="#fff"/>
      <path id="Path_11" data-name="Path 11" d="M1055.2,996.943l.842-1.869a6.3,6.3,0,0,0,3.536,1.119c1.469,0,2.067-.489,2.067-1.147,0-2-6.231-.627-6.231-4.608,0-1.822,1.469-3.338,4.516-3.338a7.194,7.194,0,0,1,3.719.949l-.766,1.884a6.044,6.044,0,0,0-2.969-.842c-1.469,0-2.036.551-2.036,1.223,0,1.976,6.231.614,6.231,4.548,0,1.79-1.484,3.322-4.548,3.322a7.654,7.654,0,0,1-4.365-1.239" transform="translate(-1027.622 -961.301)" fill="#fff"/>
      <rect id="Rectangle_15" data-name="Rectangle 15" width="3.162" height="23.393" transform="translate(42.646 9.772)" fill="#fff"/>
      <path id="Path_12" data-name="Path 12" d="M45.808,0V6.918H42.646V3.16H3.162V6.918H0V0Z" fill="#fff"/>
      <rect id="Rectangle_16" data-name="Rectangle 16" width="3.162" height="23.393" transform="translate(0 9.772)" fill="#fff"/>
      <path id="Path_13" data-name="Path 13" d="M42.646,1378.2v.669a4.889,4.889,0,0,1-4.788,4.906q-.627.008-1.239-.031c-.34-.018-.682-.047-1.019-.084s-.685-.078-1.032-.128-.7-.1-1.059-.159a26.274,26.274,0,0,0-4.37-.4H28.83l-.327.008-.2.013-.28.018-.238.026-.225.026c-.152.021-.3.044-.442.073-.183.034-.358.076-.531.123H26.58c-.086.024-.17.047-.254.076a5.519,5.519,0,0,0-1,.421c-.115.06-.227.128-.335.2a4.865,4.865,0,0,0-.714.567,2.227,2.227,0,0,0-.157.159,4.282,4.282,0,0,0-.345.418,2.28,2.28,0,0,0-.152.214,4.41,4.41,0,0,0-.274.468l-.068.141-.065.144-.076.17-.068.18c-.068.188-.128.387-.18.585a5.878,5.878,0,0,0-.18-.585c-.024-.06-.044-.12-.071-.18l-.076-.17-.065-.144q-.031-.071-.071-.141a4.269,4.269,0,0,0-.274-.468,2.28,2.28,0,0,0-.152-.214,4.281,4.281,0,0,0-.345-.418c-.052-.057-.1-.11-.159-.159a4.816,4.816,0,0,0-.714-.567c-.107-.068-.217-.136-.332-.2a5.529,5.529,0,0,0-1-.421c-.081-.029-.167-.052-.254-.076H19.2c-.17-.047-.345-.089-.531-.123-.144-.029-.29-.052-.442-.073l-.225-.026-.238-.026-.28-.018-.2-.013-.327-.008h-.293a26.274,26.274,0,0,0-4.37.4c-.358.057-.711.112-1.056.159s-.693.094-1.032.128-.682.065-1.019.084q-.612.039-1.239.031a4.887,4.887,0,0,1-4.788-4.906v-.669H0v1.21c0,4.77,2.07,8.332,7.875,8.332a32.688,32.688,0,0,0,4.712-.46,31.938,31.938,0,0,1,4.655-.457,4.5,4.5,0,0,1,2.794.8c.839.653,1.458,1.819,1.458,3.858h2.817c0-2.039.619-3.2,1.458-3.858a4.5,4.5,0,0,1,2.794-.8,32.3,32.3,0,0,1,4.657.457,33.056,33.056,0,0,0,4.712.46c5.8,0,7.875-3.562,7.875-8.332v-1.21Z" transform="translate(0 -1342.18)" fill="#fff"/>
      <path id="Path_14" data-name="Path 14" d="M1480.462,780.6v2.062H1478.4Z" transform="translate(-1439.761 -760.198)" fill="#dda146"/>
      <path id="Path_15" data-name="Path 15" d="M815.358,1479.4v1.911a6.962,6.962,0,0,0-1.158-.755Z" transform="translate(-792.92 -1440.735)" fill="#dda146"/>
      <path id="Path_16" data-name="Path 16" d="M1306.53,601.9v3.089l-3.643,3.643H1299.8Z" transform="translate(-1265.829 -586.169)" fill="#dda146"/>
      <path id="Path_17" data-name="Path 17" d="M677.069,1300.7v3.089l-2.263,2.263-.335-.1a10.954,10.954,0,0,0-2.271-.379Z" transform="translate(-654.631 -1266.705)" fill="#dda146"/>
      <path id="Path_18" data-name="Path 18" d="M1132.5,423.3v3.089l-8.311,8.311H1121.1Z" transform="translate(-1091.799 -412.237)" fill="#dda146"/>
      <path id="Path_19" data-name="Path 19" d="M490.964,1122.1v3.089l-6.427,6.427c-.379.013-.781.034-1.215.071-.75.065-1.495.167-2.222.277Z" transform="translate(-468.526 -1092.773)" fill="#dda146"/>
      <path id="Path_20" data-name="Path 20" d="M958.471,244.6v3.089l-12.982,12.982H942.4Z" transform="translate(-917.77 -238.207)" fill="#dda146"/>
      <path id="Path_21" data-name="Path 21" d="M302.229,943.4v3.089L290.517,958.2c-.274.039-.546.071-.818.1-.468.047-1,.1-1.508.1a4.868,4.868,0,0,1-.891-.073Z" transform="translate(-279.791 -918.743)" fill="#dda146"/>
      <path id="Path_22" data-name="Path 22" d="M911.238,195.4,894.2,212.435v-3.087L908.149,195.4Z" transform="translate(-870.829 -190.293)" fill="#dda146"/>
      <path id="Path_23" data-name="Path 23" d="M214.652,895.2l-15.734,15.734a3,3,0,0,1-1.218-1.869L211.562,895.2Z" transform="translate(-192.533 -871.803)" fill="#dda146"/>
      <path id="Path_24" data-name="Path 24" d="M906.57,195.4,894.2,207.767v-3.089l9.281-9.278Z" transform="translate(-870.829 -190.293)" fill="#dda146"/>
      <path id="Path_25" data-name="Path 25" d="M207.741,895.2,195.4,907.541v-3.089l9.252-9.252Z" transform="translate(-190.293 -871.803)" fill="#dda146"/>
      <path id="Path_26" data-name="Path 26" d="M901.9,195.4l-7.7,7.7V200.01l4.61-4.61Z" transform="translate(-870.829 -190.293)" fill="#dda146"/>
      <path id="Path_27" data-name="Path 27" d="M203.073,895.2l-7.673,7.671v-3.089l4.584-4.582Z" transform="translate(-190.293 -871.803)" fill="#dda146"/>
      <path id="Path_28" data-name="Path 28" d="M897.232,195.4l-3.032,3.029V195.4Z" transform="translate(-870.829 -190.293)" fill="#dda146"/>
      <path id="Path_29" data-name="Path 29" d="M198.5,895.2l-3,3v-3Z" transform="translate(-190.39 -871.803)" fill="#dda146"/>
      <rect id="Rectangle_17" data-name="Rectangle 17" width="45.808" height="49.298" fill="none"/>
      <path id="Path_30" data-name="Path 30" d="M2019.1,549.075c0-6.163,4.733-10.575,11.1-10.575a10.561,10.561,0,0,1,8.413,3.622l-3.04,2.8a6.573,6.573,0,0,0-5.141-2.394,6.544,6.544,0,1,0,0,13.089,6.52,6.52,0,0,0,5.141-2.423l3.037,2.8a10.512,10.512,0,0,1-8.442,3.651c-6.338,0-11.071-4.412-11.071-10.575" transform="translate(-1966.329 -524.426)" fill="#fff"/>
      <path id="Path_31" data-name="Path 31" d="M2793.7,549.075c0-6.077,4.733-10.575,11.189-10.575s11.189,4.469,11.189,10.575-4.762,10.575-11.189,10.575-11.189-4.5-11.189-10.575m17.587,0a6.4,6.4,0,1,0-6.4,6.544,6.239,6.239,0,0,0,6.4-6.544" transform="translate(-2720.685 -524.426)" fill="#fff"/>
      <path id="Path_32" data-name="Path 32" d="M3758.3,551.9h9.289c6.691,0,11.278,4.033,11.278,10.224s-4.587,10.224-11.278,10.224H3758.3Zm9.056,16.565c4.062,0,6.72-2.425,6.72-6.338s-2.658-6.341-6.72-6.341h-4.323v12.678Z" transform="translate(-3660.074 -537.476)" fill="#fff"/>
      <path id="Path_33" data-name="Path 33" d="M4669.436,568.551v3.8H4653.6V551.9h15.454v3.8H4658.3v4.44h9.5v3.68h-9.5v4.733Z" transform="translate(-4531.974 -537.476)" fill="#fff"/>
      <path id="Path_34" data-name="Path 34" d="M5314.3,557.381l1.607-3.562a12.038,12.038,0,0,0,6.749,2.133c2.8,0,3.944-.936,3.944-2.19,0-3.826-11.889-1.2-11.889-8.792,0-3.476,2.8-6.369,8.62-6.369a13.729,13.729,0,0,1,7.1,1.811L5328.967,544a11.572,11.572,0,0,0-5.666-1.607c-2.807,0-3.887,1.051-3.887,2.337,0,3.769,11.889,1.168,11.889,8.677,0,3.419-2.833,6.341-8.677,6.341a14.572,14.572,0,0,1-8.324-2.365" transform="translate(-5175.406 -524.523)" fill="#fff"/>
      <path id="Path_35" data-name="Path 35" d="M5968.042,555.755H5961.5V551.9h17.82v3.855h-6.544v16.594h-4.733Z" transform="translate(-5805.691 -537.476)" fill="#fff"/>
      <path id="Path_36" data-name="Path 36" d="M6586.757,568.066h-9.5l-1.811,4.383H6570.6L6579.713,552h4.673l9.142,20.449h-4.966Zm-1.49-3.594-3.244-7.83-3.244,7.828Z" transform="translate(-6398.872 -537.573)" fill="#fff"/>
      <path id="Path_37" data-name="Path 37" d="M7441.4,549.075c0-6.163,4.733-10.575,11.1-10.575a10.561,10.561,0,0,1,8.413,3.622l-3.04,2.8a6.571,6.571,0,0,0-5.141-2.394,6.544,6.544,0,1,0,0,13.089,6.521,6.521,0,0,0,5.141-2.423l3.04,2.8a10.514,10.514,0,0,1-8.445,3.651c-6.338,0-11.071-4.412-11.071-10.575" transform="translate(-7246.912 -524.426)" fill="#fff"/>
      <path id="Path_38" data-name="Path 38" d="M8289.352,564.315l-2.747,2.864v5.17h-4.7V551.9h4.7v9.553l9.057-9.553h5.259l-8.471,9.114,8.967,11.335h-5.522Z" transform="translate(-8065.446 -537.476)" fill="#fff"/>
    </g>
  </g>
</svg>
